<svg xmlns="http://www.w3.org/2000/svg" width="576" height="576" viewBox="0 0 576 576" font-family="Helvetica,Arial,sans-serif">
<defs>
<path id="topArc" fill="none" d="M 44.0 288.0 A 244.0 244.0 0 0 1 532.0 288.0"/>
<path id="botArc" fill="none" d="M 44.0 288.0 A 244.0 244.0 0 0 0 532.0 288.0"/>
<radialGradient id="sheen" cx="38%" cy="32%" r="75%"><stop offset="0%" stop-color="#ffffff" stop-opacity="0.18"/><stop offset="55%" stop-color="#ffffff" stop-opacity="0.04"/><stop offset="100%" stop-color="#000000" stop-opacity="0.22"/></radialGradient>
</defs>
<rect width="576" height="576" fill="#cfd6df"/>
<circle cx="291.0" cy="292.0" r="270.0" fill="#000" opacity="0.20"/>
<circle cx="288.0" cy="288.0" r="270.0" fill="#b8932e"/>
<circle cx="288.0" cy="288.0" r="260.0" fill="#2b2f36"/>
<line x1="556.0" y1="288.0" x2="549.0" y2="288.0" stroke="#2b2f36" stroke-width="1.5" opacity="0.35"/><line x1="555.6" y1="302.0" x2="548.6" y2="301.7" stroke="#2b2f36" stroke-width="1.5" opacity="0.35"/><line x1="554.5" y1="316.0" x2="547.6" y2="315.3" stroke="#2b2f36" stroke-width="1.5" opacity="0.35"/><line x1="552.7" y1="329.9" x2="545.8" y2="328.8" stroke="#2b2f36" stroke-width="1.5" opacity="0.35"/><line x1="550.1" y1="343.7" x2="543.3" y2="342.3" stroke="#2b2f36" stroke-width="1.5" opacity="0.35"/><line x1="546.9" y1="357.4" x2="540.1" y2="355.6" stroke="#2b2f36" stroke-width="1.5" opacity="0.35"/><line x1="542.9" y1="370.8" x2="536.2" y2="368.7" stroke="#2b2f36" stroke-width="1.5" opacity="0.35"/><line x1="538.2" y1="384.0" x2="531.7" y2="381.5" stroke="#2b2f36" stroke-width="1.5" opacity="0.35"/><line x1="532.8" y1="397.0" x2="526.4" y2="394.2" stroke="#2b2f36" stroke-width="1.5" opacity="0.35"/><line x1="526.8" y1="409.7" x2="520.6" y2="406.5" stroke="#2b2f36" stroke-width="1.5" opacity="0.35"/><line x1="520.1" y1="422.0" x2="514.0" y2="418.5" stroke="#2b2f36" stroke-width="1.5" opacity="0.35"/><line x1="512.8" y1="434.0" x2="506.9" y2="430.2" stroke="#2b2f36" stroke-width="1.5" opacity="0.35"/><line x1="504.8" y1="445.5" x2="499.2" y2="441.4" stroke="#2b2f36" stroke-width="1.5" opacity="0.35"/><line x1="496.3" y1="456.7" x2="490.8" y2="452.3" stroke="#2b2f36" stroke-width="1.5" opacity="0.35"/><line x1="487.2" y1="467.3" x2="482.0" y2="462.6" stroke="#2b2f36" stroke-width="1.5" opacity="0.35"/><line x1="477.5" y1="477.5" x2="472.6" y2="472.6" stroke="#2b2f36" stroke-width="1.5" opacity="0.35"/><line x1="467.3" y1="487.2" x2="462.6" y2="482.0" stroke="#2b2f36" stroke-width="1.5" opacity="0.35"/><line x1="456.7" y1="496.3" x2="452.3" y2="490.8" stroke="#2b2f36" stroke-width="1.5" opacity="0.35"/><line x1="445.5" y1="504.8" x2="441.4" y2="499.2" stroke="#2b2f36" stroke-width="1.5" opacity="0.35"/><line x1="434.0" y1="512.8" x2="430.2" y2="506.9" stroke="#2b2f36" stroke-width="1.5" opacity="0.35"/><line x1="422.0" y1="520.1" x2="418.5" y2="514.0" stroke="#2b2f36" stroke-width="1.5" opacity="0.35"/><line x1="409.7" y1="526.8" x2="406.5" y2="520.6" stroke="#2b2f36" stroke-width="1.5" opacity="0.35"/><line x1="397.0" y1="532.8" x2="394.2" y2="526.4" stroke="#2b2f36" stroke-width="1.5" opacity="0.35"/><line x1="384.0" y1="538.2" x2="381.5" y2="531.7" stroke="#2b2f36" stroke-width="1.5" opacity="0.35"/><line x1="370.8" y1="542.9" x2="368.7" y2="536.2" stroke="#2b2f36" stroke-width="1.5" opacity="0.35"/><line x1="357.4" y1="546.9" x2="355.6" y2="540.1" stroke="#2b2f36" stroke-width="1.5" opacity="0.35"/><line x1="343.7" y1="550.1" x2="342.3" y2="543.3" stroke="#2b2f36" stroke-width="1.5" opacity="0.35"/><line x1="329.9" y1="552.7" x2="328.8" y2="545.8" stroke="#2b2f36" stroke-width="1.5" opacity="0.35"/><line x1="316.0" y1="554.5" x2="315.3" y2="547.6" stroke="#2b2f36" stroke-width="1.5" opacity="0.35"/><line x1="302.0" y1="555.6" x2="301.7" y2="548.6" stroke="#2b2f36" stroke-width="1.5" opacity="0.35"/><line x1="288.0" y1="556.0" x2="288.0" y2="549.0" stroke="#2b2f36" stroke-width="1.5" opacity="0.35"/><line x1="274.0" y1="555.6" x2="274.3" y2="548.6" stroke="#2b2f36" stroke-width="1.5" opacity="0.35"/><line x1="260.0" y1="554.5" x2="260.7" y2="547.6" stroke="#2b2f36" stroke-width="1.5" opacity="0.35"/><line x1="246.1" y1="552.7" x2="247.2" y2="545.8" stroke="#2b2f36" stroke-width="1.5" opacity="0.35"/><line x1="232.3" y1="550.1" x2="233.7" y2="543.3" stroke="#2b2f36" stroke-width="1.5" opacity="0.35"/><line x1="218.6" y1="546.9" x2="220.4" y2="540.1" stroke="#2b2f36" stroke-width="1.5" opacity="0.35"/><line x1="205.2" y1="542.9" x2="207.3" y2="536.2" stroke="#2b2f36" stroke-width="1.5" opacity="0.35"/><line x1="192.0" y1="538.2" x2="194.5" y2="531.7" stroke="#2b2f36" stroke-width="1.5" opacity="0.35"/><line x1="179.0" y1="532.8" x2="181.8" y2="526.4" stroke="#2b2f36" stroke-width="1.5" opacity="0.35"/><line x1="166.3" y1="526.8" x2="169.5" y2="520.6" stroke="#2b2f36" stroke-width="1.5" opacity="0.35"/><line x1="154.0" y1="520.1" x2="157.5" y2="514.0" stroke="#2b2f36" stroke-width="1.5" opacity="0.35"/><line x1="142.0" y1="512.8" x2="145.8" y2="506.9" stroke="#2b2f36" stroke-width="1.5" opacity="0.35"/><line x1="130.5" y1="504.8" x2="134.6" y2="499.2" stroke="#2b2f36" stroke-width="1.5" opacity="0.35"/><line x1="119.3" y1="496.3" x2="123.7" y2="490.8" stroke="#2b2f36" stroke-width="1.5" opacity="0.35"/><line x1="108.7" y1="487.2" x2="113.4" y2="482.0" stroke="#2b2f36" stroke-width="1.5" opacity="0.35"/><line x1="98.5" y1="477.5" x2="103.4" y2="472.6" stroke="#2b2f36" stroke-width="1.5" opacity="0.35"/><line x1="88.8" y1="467.3" x2="94.0" y2="462.6" stroke="#2b2f36" stroke-width="1.5" opacity="0.35"/><line x1="79.7" y1="456.7" x2="85.2" y2="452.3" stroke="#2b2f36" stroke-width="1.5" opacity="0.35"/><line x1="71.2" y1="445.5" x2="76.8" y2="441.4" stroke="#2b2f36" stroke-width="1.5" opacity="0.35"/><line x1="63.2" y1="434.0" x2="69.1" y2="430.2" stroke="#2b2f36" stroke-width="1.5" opacity="0.35"/><line x1="55.9" y1="422.0" x2="62.0" y2="418.5" stroke="#2b2f36" stroke-width="1.5" opacity="0.35"/><line x1="49.2" y1="409.7" x2="55.4" y2="406.5" stroke="#2b2f36" stroke-width="1.5" opacity="0.35"/><line x1="43.2" y1="397.0" x2="49.6" y2="394.2" stroke="#2b2f36" stroke-width="1.5" opacity="0.35"/><line x1="37.8" y1="384.0" x2="44.3" y2="381.5" stroke="#2b2f36" stroke-width="1.5" opacity="0.35"/><line x1="33.1" y1="370.8" x2="39.8" y2="368.7" stroke="#2b2f36" stroke-width="1.5" opacity="0.35"/><line x1="29.1" y1="357.4" x2="35.9" y2="355.6" stroke="#2b2f36" stroke-width="1.5" opacity="0.35"/><line x1="25.9" y1="343.7" x2="32.7" y2="342.3" stroke="#2b2f36" stroke-width="1.5" opacity="0.35"/><line x1="23.3" y1="329.9" x2="30.2" y2="328.8" stroke="#2b2f36" stroke-width="1.5" opacity="0.35"/><line x1="21.5" y1="316.0" x2="28.4" y2="315.3" stroke="#2b2f36" stroke-width="1.5" opacity="0.35"/><line x1="20.4" y1="302.0" x2="27.4" y2="301.7" stroke="#2b2f36" stroke-width="1.5" opacity="0.35"/><line x1="20.0" y1="288.0" x2="27.0" y2="288.0" stroke="#2b2f36" stroke-width="1.5" opacity="0.35"/><line x1="20.4" y1="274.0" x2="27.4" y2="274.3" stroke="#2b2f36" stroke-width="1.5" opacity="0.35"/><line x1="21.5" y1="260.0" x2="28.4" y2="260.7" stroke="#2b2f36" stroke-width="1.5" opacity="0.35"/><line x1="23.3" y1="246.1" x2="30.2" y2="247.2" stroke="#2b2f36" stroke-width="1.5" opacity="0.35"/><line x1="25.9" y1="232.3" x2="32.7" y2="233.7" stroke="#2b2f36" stroke-width="1.5" opacity="0.35"/><line x1="29.1" y1="218.6" x2="35.9" y2="220.4" stroke="#2b2f36" stroke-width="1.5" opacity="0.35"/><line x1="33.1" y1="205.2" x2="39.8" y2="207.3" stroke="#2b2f36" stroke-width="1.5" opacity="0.35"/><line x1="37.8" y1="192.0" x2="44.3" y2="194.5" stroke="#2b2f36" stroke-width="1.5" opacity="0.35"/><line x1="43.2" y1="179.0" x2="49.6" y2="181.8" stroke="#2b2f36" stroke-width="1.5" opacity="0.35"/><line x1="49.2" y1="166.3" x2="55.4" y2="169.5" stroke="#2b2f36" stroke-width="1.5" opacity="0.35"/><line x1="55.9" y1="154.0" x2="62.0" y2="157.5" stroke="#2b2f36" stroke-width="1.5" opacity="0.35"/><line x1="63.2" y1="142.0" x2="69.1" y2="145.8" stroke="#2b2f36" stroke-width="1.5" opacity="0.35"/><line x1="71.2" y1="130.5" x2="76.8" y2="134.6" stroke="#2b2f36" stroke-width="1.5" opacity="0.35"/><line x1="79.7" y1="119.3" x2="85.2" y2="123.7" stroke="#2b2f36" stroke-width="1.5" opacity="0.35"/><line x1="88.8" y1="108.7" x2="94.0" y2="113.4" stroke="#2b2f36" stroke-width="1.5" opacity="0.35"/><line x1="98.5" y1="98.5" x2="103.4" y2="103.4" stroke="#2b2f36" stroke-width="1.5" opacity="0.35"/><line x1="108.7" y1="88.8" x2="113.4" y2="94.0" stroke="#2b2f36" stroke-width="1.5" opacity="0.35"/><line x1="119.3" y1="79.7" x2="123.7" y2="85.2" stroke="#2b2f36" stroke-width="1.5" opacity="0.35"/><line x1="130.5" y1="71.2" x2="134.6" y2="76.8" stroke="#2b2f36" stroke-width="1.5" opacity="0.35"/><line x1="142.0" y1="63.2" x2="145.8" y2="69.1" stroke="#2b2f36" stroke-width="1.5" opacity="0.35"/><line x1="154.0" y1="55.9" x2="157.5" y2="62.0" stroke="#2b2f36" stroke-width="1.5" opacity="0.35"/><line x1="166.3" y1="49.2" x2="169.5" y2="55.4" stroke="#2b2f36" stroke-width="1.5" opacity="0.35"/><line x1="179.0" y1="43.2" x2="181.8" y2="49.6" stroke="#2b2f36" stroke-width="1.5" opacity="0.35"/><line x1="192.0" y1="37.8" x2="194.5" y2="44.3" stroke="#2b2f36" stroke-width="1.5" opacity="0.35"/><line x1="205.2" y1="33.1" x2="207.3" y2="39.8" stroke="#2b2f36" stroke-width="1.5" opacity="0.35"/><line x1="218.6" y1="29.1" x2="220.4" y2="35.9" stroke="#2b2f36" stroke-width="1.5" opacity="0.35"/><line x1="232.3" y1="25.9" x2="233.7" y2="32.7" stroke="#2b2f36" stroke-width="1.5" opacity="0.35"/><line x1="246.1" y1="23.3" x2="247.2" y2="30.2" stroke="#2b2f36" stroke-width="1.5" opacity="0.35"/><line x1="260.0" y1="21.5" x2="260.7" y2="28.4" stroke="#2b2f36" stroke-width="1.5" opacity="0.35"/><line x1="274.0" y1="20.4" x2="274.3" y2="27.4" stroke="#2b2f36" stroke-width="1.5" opacity="0.35"/><line x1="288.0" y1="20.0" x2="288.0" y2="27.0" stroke="#2b2f36" stroke-width="1.5" opacity="0.35"/><line x1="302.0" y1="20.4" x2="301.7" y2="27.4" stroke="#2b2f36" stroke-width="1.5" opacity="0.35"/><line x1="316.0" y1="21.5" x2="315.3" y2="28.4" stroke="#2b2f36" stroke-width="1.5" opacity="0.35"/><line x1="329.9" y1="23.3" x2="328.8" y2="30.2" stroke="#2b2f36" stroke-width="1.5" opacity="0.35"/><line x1="343.7" y1="25.9" x2="342.3" y2="32.7" stroke="#2b2f36" stroke-width="1.5" opacity="0.35"/><line x1="357.4" y1="29.1" x2="355.6" y2="35.9" stroke="#2b2f36" stroke-width="1.5" opacity="0.35"/><line x1="370.8" y1="33.1" x2="368.7" y2="39.8" stroke="#2b2f36" stroke-width="1.5" opacity="0.35"/><line x1="384.0" y1="37.8" x2="381.5" y2="44.3" stroke="#2b2f36" stroke-width="1.5" opacity="0.35"/><line x1="397.0" y1="43.2" x2="394.2" y2="49.6" stroke="#2b2f36" stroke-width="1.5" opacity="0.35"/><line x1="409.7" y1="49.2" x2="406.5" y2="55.4" stroke="#2b2f36" stroke-width="1.5" opacity="0.35"/><line x1="422.0" y1="55.9" x2="418.5" y2="62.0" stroke="#2b2f36" stroke-width="1.5" opacity="0.35"/><line x1="434.0" y1="63.2" x2="430.2" y2="69.1" stroke="#2b2f36" stroke-width="1.5" opacity="0.35"/><line x1="445.5" y1="71.2" x2="441.4" y2="76.8" stroke="#2b2f36" stroke-width="1.5" opacity="0.35"/><line x1="456.7" y1="79.7" x2="452.3" y2="85.2" stroke="#2b2f36" stroke-width="1.5" opacity="0.35"/><line x1="467.3" y1="88.8" x2="462.6" y2="94.0" stroke="#2b2f36" stroke-width="1.5" opacity="0.35"/><line x1="477.5" y1="98.5" x2="472.6" y2="103.4" stroke="#2b2f36" stroke-width="1.5" opacity="0.35"/><line x1="487.2" y1="108.7" x2="482.0" y2="113.4" stroke="#2b2f36" stroke-width="1.5" opacity="0.35"/><line x1="496.3" y1="119.3" x2="490.8" y2="123.7" stroke="#2b2f36" stroke-width="1.5" opacity="0.35"/><line x1="504.8" y1="130.5" x2="499.2" y2="134.6" stroke="#2b2f36" stroke-width="1.5" opacity="0.35"/><line x1="512.8" y1="142.0" x2="506.9" y2="145.8" stroke="#2b2f36" stroke-width="1.5" opacity="0.35"/><line x1="520.1" y1="154.0" x2="514.0" y2="157.5" stroke="#2b2f36" stroke-width="1.5" opacity="0.35"/><line x1="526.8" y1="166.3" x2="520.6" y2="169.5" stroke="#2b2f36" stroke-width="1.5" opacity="0.35"/><line x1="532.8" y1="179.0" x2="526.4" y2="181.8" stroke="#2b2f36" stroke-width="1.5" opacity="0.35"/><line x1="538.2" y1="192.0" x2="531.7" y2="194.5" stroke="#2b2f36" stroke-width="1.5" opacity="0.35"/><line x1="542.9" y1="205.2" x2="536.2" y2="207.3" stroke="#2b2f36" stroke-width="1.5" opacity="0.35"/><line x1="546.9" y1="218.6" x2="540.1" y2="220.4" stroke="#2b2f36" stroke-width="1.5" opacity="0.35"/><line x1="550.1" y1="232.3" x2="543.3" y2="233.7" stroke="#2b2f36" stroke-width="1.5" opacity="0.35"/><line x1="552.7" y1="246.1" x2="545.8" y2="247.2" stroke="#2b2f36" stroke-width="1.5" opacity="0.35"/><line x1="554.5" y1="260.0" x2="547.6" y2="260.7" stroke="#2b2f36" stroke-width="1.5" opacity="0.35"/><line x1="555.6" y1="274.0" x2="548.6" y2="274.3" stroke="#2b2f36" stroke-width="1.5" opacity="0.35"/>
<circle cx="288.0" cy="288.0" r="224.0" fill="none" stroke="#d8b24a" stroke-width="2" opacity="0.5"/>
<text fill="#d8b24a" font-weight="800" font-size="34" letter-spacing="3"><textPath href="#topArc" startOffset="50%" text-anchor="middle">SPIRITUS — NO ONE LEFT BEHIND</textPath></text>
<text fill="#d8b24a" font-weight="800" font-size="34" letter-spacing="3"><textPath href="#botArc" startOffset="50%" text-anchor="middle">988 — PRESS 1</textPath></text>
<circle cx="288.0" cy="288.0" r="74" fill="#1a1d22"/><circle cx="288.0" cy="288.0" r="60" fill="none" stroke="#2b2f36" stroke-width="3" opacity="0.6"/><polygon points="288.0,236.0 299.8,265.8 331.7,267.8 307.0,288.2 315.0,319.2 288.0,302.0 261.0,319.2 269.0,288.2 244.3,267.8 276.2,265.8" fill="#2b2f36"/>
<text x="288.0" y="384.0" fill="#d8b24a" font-weight="900" font-size="48" letter-spacing="6" text-anchor="middle">SUAS</text>
<text x="288.0" y="414.0" fill="#d8b24a" font-weight="600" font-size="20" letter-spacing="4" text-anchor="middle" opacity="0.9">QUICK REACTION FORCE</text>
<circle cx="288.0" cy="288.0" r="270.0" fill="url(#sheen)"/>
</svg>